<?xml version="1.0" encoding="utf-8"?>
<!-- Generator: Adobe Illustrator 25.2.1, SVG Export Plug-In . SVG Version: 6.00 Build 0)  -->
<svg width="97px" height="30px" version="1.1" id="Layer_1" xmlns="http://www.w3.org/2000/svg" xmlns:xlink="http://www.w3.org/1999/xlink" x="0px" y="0px"
	 viewBox="0 0 97 30" style="enable-background:new 0 0 97 30;" xml:space="preserve">
<style type="text/css">
	.st0{fill:#ED6C25;}
	.st1{fill-rule:evenodd;clip-rule:evenodd;fill:#26201F;}
</style>
<g>
	<g>
		<path class="st0" d="M19.7,4.3c1.5-2.4,4.1-4.1,7.1-4.3c4.8-0.3,8.9,3.3,9.4,8.1h-0.3C34.9,8.1,34,9,34,10v4.8
			c-1.5,1.8-3.8,3-6.3,3.1c-1.9,0.1-3.7-0.4-5.3-1.4c-1.3-1.2-1.9,0-2.2,0.5c-1.4,2.2-3.8,3.6-6.6,3.8c-4.6,0.2-8.6-3.3-8.8-7.9
			C4.7,8.2,8.2,4.2,12.8,4c1.4-0.1,2.8,0.2,4,0.8C17.6,5.1,19.3,4.8,19.7,4.3"/>
	</g>
	<g>
		<path class="st1" d="M42.7,26.3l-0.4-1.1C42.2,25,42.1,25,42,25c-0.4,0.2-0.9,0.3-1.4,0.3c-0.6,0-1.1-0.2-1.6-0.6
			c-0.4-0.4-0.6-0.9-0.6-1.6V10.7c0-0.2-0.1-0.3-0.3-0.3H37c-0.2,0-0.3,0.1-0.3,0.3v12.4c0,1.1,0.4,2,1.1,2.7
			c0.8,0.7,1.6,1.1,2.7,1.1c0.6,0,1.3-0.1,1.9-0.3C42.7,26.5,42.7,26.4,42.7,26.3"/>
	</g>
	<g>
		<path class="st1" d="M51,21.4V19c0-1.1-0.4-2.1-1.2-2.9C49,15.4,48.1,15,46.9,15c-1.1,0-2.1,0.4-2.9,1.2c-0.8,0.8-1.2,1.7-1.2,2.9
			v3.6c0,1.2,0.4,2.2,1.3,3.1c0.8,0.8,1.8,1.3,3,1.3c1.3,0,2.5-0.4,3.5-1.1c0.1-0.1,0.2-0.2,0.1-0.3l-0.7-1
			c-0.1-0.1-0.2-0.1-0.3-0.1c-0.8,0.5-1.6,0.8-2.5,0.8c-0.7,0-1.4-0.3-1.9-0.8c-0.5-0.5-0.8-1.1-0.8-1.9v-0.7c0-0.2,0.1-0.3,0.3-0.3
			h6.1C50.9,21.6,51,21.6,51,21.4 M49.4,19.8c0,0.2-0.1,0.2-0.2,0.2h-4.4c-0.2,0-0.3-0.1-0.3-0.2V19c0-0.7,0.3-1.2,0.7-1.7
			c0.5-0.5,1-0.7,1.7-0.7s1.2,0.2,1.7,0.7c0.5,0.5,0.7,1.1,0.7,1.7L49.4,19.8L49.4,19.8z"/>
	</g>
	<g>
		<path class="st1" d="M61.6,22v-2.8c0-1.2-0.4-2.2-1.3-3c-0.8-0.8-1.8-1.2-3-1.2c-1,0-1.9,0.3-2.7,1c0,0-0.1,0.1-0.1,0.1
			c-0.2,0-0.3-0.1-0.3-0.3v-0.3c0-0.2-0.1-0.3-0.3-0.3h-0.7c-0.2,0-0.3,0.1-0.3,0.3v14.3c0,0.2,0.1,0.3,0.3,0.3h1.2
			c0.2,0,0.2-0.1,0.2-0.3v-3.9c0-0.2,0.1-0.2,0.3-0.2c0.1,0,0.1,0,0.2,0.1c0.7,0.5,1.4,0.7,2.3,0.7c1.2,0,2.2-0.4,3-1.3
			C61.2,24.2,61.6,23.2,61.6,22 M60,22c0,0.7-0.3,1.4-0.8,1.9c-0.5,0.5-1.2,0.8-1.9,0.8s-1.4-0.3-1.9-0.8c-0.5-0.5-0.8-1.2-0.8-1.9
			v-2.8c0-0.7,0.3-1.3,0.8-1.9c0.5-0.5,1.1-0.8,1.9-0.8c0.7,0,1.3,0.3,1.9,0.8c0.5,0.5,0.8,1.1,0.8,1.9V22z"/>
	</g>
	<g>
		<path class="st0" d="M77.6,27.1c-1.2,0-2.3-0.4-3.1-1.3c-0.9-0.9-1.3-1.9-1.3-3.1v-3.4c0-1.2,0.4-2.3,1.3-3.1
			c0.8-0.9,1.9-1.3,3.1-1.3c0.9,0,1.7,0.2,2.3,0.7c0,0,0,0,0.1,0c0,0,0,0,0,0c0,0,0,0,0,0v-4.8c0-0.3,0.2-0.4,0.4-0.4h1.2
			c0.1,0,0.4,0.1,0.4,0.4v15.7c0,0.2-0.1,0.4-0.4,0.4l0,0h-0.7c-0.3,0-0.4-0.2-0.4-0.4v-0.2c0-0.1,0-0.1-0.1-0.1c0,0,0,0,0,0l0,0
			C79.5,26.8,78.6,27.1,77.6,27.1z M77.6,15.1c-1.2,0-2.1,0.4-2.9,1.2c-0.8,0.8-1.2,1.8-1.2,2.9v3.4c0,1.1,0.4,2.1,1.2,2.9
			c0.8,0.8,1.8,1.2,2.9,1.2c0.9,0,1.8-0.3,2.6-0.9c0.1-0.1,0.2-0.1,0.3-0.1c0.3,0,0.4,0.2,0.4,0.4v0.2c0,0.1,0,0.1,0.1,0.1h0.7
			c0,0,0.1,0,0.1-0.1V10.7c0-0.1,0-0.1,0-0.1c0,0,0,0,0,0h-1.2c-0.1,0-0.1,0-0.1,0.1v4.8c0,0.2-0.1,0.4-0.4,0.4
			c-0.1,0-0.2,0-0.3-0.1C79.1,15.3,78.4,15.1,77.6,15.1z M77.6,25.4c-0.8,0-1.5-0.3-2-0.8c-0.5-0.6-0.8-1.3-0.8-2v-3.4
			c0-0.8,0.3-1.4,0.8-2c0.5-0.5,1.2-0.8,2-0.8c0.8,0,1.4,0.3,2,0.8c0.6,0.5,0.8,1.2,0.8,2v3.4c0,0.8-0.3,1.4-0.8,2
			C79,25.2,78.3,25.4,77.6,25.4z M77.6,16.8c-0.7,0-1.3,0.2-1.8,0.7c-0.5,0.5-0.7,1.1-0.7,1.8v3.4c0,0.7,0.2,1.2,0.7,1.8
			c0.5,0.5,1.1,0.7,1.8,0.7c0.7,0,1.3-0.2,1.7-0.7c0.5-0.5,0.7-1.1,0.7-1.8v-3.4c0-0.7-0.2-1.3-0.7-1.7C78.9,17,78.3,16.8,77.6,16.8
			z"/>
	</g>
	<g>
		<path class="st1" d="M92.1,26.4V19c0-1.1-0.4-2.1-1.2-2.9C90.1,15.4,89.1,15,88,15c-1.3,0-2.4,0.4-3.4,1.1
			c-0.2,0.1-0.2,0.2-0.1,0.3l0.7,0.9c0.1,0.1,0.2,0.2,0.3,0.1c0.8-0.5,1.6-0.8,2.5-0.8c0.7,0,1.3,0.2,1.7,0.7
			c0.5,0.5,0.7,1.1,0.7,1.7v0.3c0,0.2-0.1,0.2-0.2,0.1c-0.7-0.5-1.4-0.7-2.3-0.7c-1.1,0-2.1,0.4-2.9,1.2c-0.8,0.8-1.2,1.8-1.2,2.9
			c0,1.1,0.4,2.1,1.2,2.9c0.8,0.8,1.8,1.2,2.9,1.2c0.8,0,1.5-0.2,2.1-0.6c0.3-0.2,0.5-0.3,0.5-0.3c0.2,0,0.3,0.1,0.3,0.3v0.1
			c0,0.2,0.1,0.3,0.3,0.3h0.7C92,26.6,92.1,26.5,92.1,26.4 M90.5,22.8c0,0.7-0.3,1.2-0.7,1.7c-0.5,0.5-1,0.7-1.7,0.7
			c-0.7,0-1.2-0.3-1.7-0.7c-0.5-0.5-0.7-1-0.7-1.7c0-0.7,0.2-1.2,0.7-1.7c0.5-0.5,1.1-0.7,1.7-0.7c0.7,0,1.3,0.3,1.7,0.7
			C90.2,21.6,90.5,22.2,90.5,22.8"/>
	</g>
	<g>
		<path class="st0" d="M67.5,21.6c-0.9,0-1.8-0.4-2.4-1.1c-0.7-0.6-1-1.4-1-2.4c0-1,0.4-1.8,1-2.5c0.6-0.7,1.4-1,2.4-1
			c1,0,1.9,0.3,2.4,1c0.7,0.6,1,1.5,1,2.5c0,0.9-0.4,1.8-1,2.4C69.3,21.3,68.5,21.6,67.5,21.6z M67.5,15.1c-0.9,0-1.6,0.3-2.1,0.9
			c-0.6,0.6-0.9,1.3-0.9,2.2c0,0.9,0.3,1.6,0.9,2.1l0,0c0.5,0.6,1.3,1,2.1,1c0.9,0,1.6-0.3,2.2-1c0.6-0.6,0.9-1.3,0.9-2.2
			c0-0.9-0.3-1.6-0.9-2.2l0,0C69.2,15.3,68.5,15.1,67.5,15.1z"/>
	</g>
	<g>
		<g>
			<path class="st0" d="M71.8,27h-8.5v-0.2c0-2.3,1.9-4.2,4.2-4.2c2.3,0,4.3,1.9,4.3,4.2V27z M63.7,26.6h7.8
				c-0.1-2.1-1.8-3.7-3.9-3.7C65.5,22.9,63.8,24.6,63.7,26.6z"/>
		</g>
	</g>
</g>
</svg>
